<svg xmlns="http://www.w3.org/2000/svg" width="40" height="40" viewBox="0 0 40 40">
    <path
        d="M23.25 3.33398C23.25 5.13963 23.6059 6.9275 24.2969 8.5957C24.9879 10.2639 26.0005 11.7798 27.2773 13.0566C28.5541 14.3334 30.0701 15.3461 31.7383 16.0371C33.4065 16.7281 35.1943 17.084 37 17.084V22.584C34.4723 22.584 31.9692 22.0864 29.6338 21.1191C27.2983 20.1517 25.1762 18.7328 23.3887 16.9453C23.3418 16.8984 23.2964 16.8501 23.25 16.8027V39.084H17.75V16.8027C17.7036 16.8501 17.6582 16.8984 17.6113 16.9453C15.8238 18.7328 13.7017 20.1517 11.3662 21.1191C9.03085 22.0864 6.52775 22.584 4 22.584V17.084C5.80565 17.084 7.59351 16.7281 9.26172 16.0371C10.9299 15.3461 12.4458 14.3334 13.7227 13.0566C14.9995 11.7798 16.0121 10.2639 16.7031 8.5957C17.3941 6.9275 17.75 5.13963 17.75 3.33398H23.25Z" />
</svg>