<svg xmlns="http://www.w3.org/2000/svg" width="40" height="40" viewBox="0 0 40 40">
    <path
        d="M36.666 23.25C34.8604 23.25 33.0725 23.6059 31.4043 24.2969C29.7361 24.9879 28.2202 26.0005 26.9434 27.2773C25.6666 28.5541 24.6539 30.0701 23.9629 31.7383C23.2719 33.4065 22.916 35.1943 22.916 37L17.416 37C17.416 34.4723 17.9136 31.9692 18.8809 29.6338C19.8483 27.2983 21.2672 25.1762 23.0547 23.3887C23.1016 23.3418 23.1499 23.2964 23.1973 23.25L0.916015 23.25L0.916015 17.75L23.1973 17.75C23.1499 17.7036 23.1016 17.6582 23.0547 17.6113C21.2672 15.8238 19.8483 13.7017 18.8809 11.3662C17.9136 9.03085 17.416 6.52775 17.416 4L22.916 4C22.916 5.80565 23.2719 7.59351 23.9629 9.26172C24.6539 10.9299 25.6666 12.4458 26.9434 13.7227C28.2202 14.9995 29.7361 16.0121 31.4043 16.7031C33.0725 17.3941 34.8604 17.75 36.666 17.75L36.666 23.25Z" />
</svg>