<svg width="22" height="22" viewBox="0 0 22 22" xmlns="http://www.w3.org/2000/svg">
    <path
        d="M16.0783 3.14422V1.77839C16.0596 1.62258 15.9844 1.47904 15.867 1.37491C15.7497 1.27078 15.5982 1.21328 15.4412 1.21328C15.2843 1.21328 15.1328 1.27078 15.0154 1.37491C14.8981 1.47904 14.8229 1.62258 14.8042 1.77839V2.94255H14.5108H11.8158V1.77839C11.8158 1.6082 11.7482 1.44499 11.6279 1.32466C11.5076 1.20432 11.3443 1.13672 11.1742 1.13672C11.004 1.13672 10.8408 1.20432 10.7204 1.32466C10.6001 1.44499 10.5325 1.6082 10.5325 1.77839V2.92422H7.48916H7.19583V1.77839C7.17711 1.62258 7.10194 1.47904 6.98455 1.37491C6.86715 1.27078 6.71567 1.21328 6.55875 1.21328C6.40182 1.21328 6.25034 1.27078 6.13294 1.37491C6.01555 1.47904 5.94038 1.62258 5.92166 1.77839V3.14422C4.74433 3.48381 3.70914 4.19657 2.97183 5.17524C2.23452 6.15391 1.83498 7.34556 1.83333 8.57089V15.2076C1.83818 16.7084 2.43843 18.146 3.50228 19.2047C4.56613 20.2634 6.00663 20.8567 7.50749 20.8542H14.5292C16.0237 20.847 17.4548 20.2494 18.5107 19.1918C19.5666 18.1341 20.1618 16.7021 20.1667 15.2076V8.57089C20.165 7.34556 19.7655 6.15391 19.0282 5.17524C18.2909 4.19657 17.2557 3.48381 16.0783 3.14422V3.14422ZM5.92166 4.49172V5.23422C5.94038 5.39002 6.01555 5.53356 6.13294 5.63769C6.25034 5.74183 6.40182 5.79933 6.55875 5.79933C6.71567 5.79933 6.86715 5.74183 6.98455 5.63769C7.10194 5.53356 7.17711 5.39002 7.19583 5.23422V4.22589C7.29666 4.22589 7.38833 4.22589 7.48916 4.22589H10.5325V5.23422C10.5325 5.4044 10.6001 5.56761 10.7204 5.68795C10.8408 5.80828 11.004 5.87589 11.1742 5.87589C11.3443 5.87589 11.5076 5.80828 11.6279 5.68795C11.7482 5.56761 11.8158 5.4044 11.8158 5.23422V4.19839H14.5108C14.6117 4.19839 14.7033 4.19839 14.8042 4.19839V5.20672C14.8229 5.36252 14.8981 5.50606 15.0154 5.61019C15.1328 5.71432 15.2843 5.77183 15.4412 5.77183C15.5982 5.77183 15.7497 5.71432 15.867 5.61019C15.9844 5.50606 16.0596 5.36252 16.0783 5.20672V4.49172C16.7987 4.77193 17.4324 5.23735 17.9152 5.84094C18.3981 6.44453 18.7131 7.16489 18.8283 7.92922H3.15333C3.27024 7.16287 3.58796 6.44113 4.07419 5.83736C4.56043 5.23359 5.19785 4.76931 5.92166 4.49172V4.49172ZM14.5108 19.5801H7.48916C6.32622 19.5825 5.20981 19.1235 4.38492 18.3037C3.56002 17.484 3.09401 16.3705 3.08916 15.2076V9.16672H18.9108V15.1709C18.9132 15.7498 18.8012 16.3235 18.581 16.8589C18.3609 17.3944 18.037 17.881 17.6281 18.2908C17.2191 18.7006 16.7332 19.0255 16.1982 19.2467C15.6632 19.468 15.0898 19.5813 14.5108 19.5801V19.5801ZM8.79083 12.6867C8.79631 12.8455 8.75423 13.0023 8.67 13.137C8.58576 13.2717 8.46321 13.3782 8.31806 13.4428C8.1729 13.5074 8.01176 13.5272 7.85529 13.4996C7.69882 13.472 7.55416 13.3983 7.43986 13.2879C7.32556 13.1776 7.24683 13.0356 7.21377 12.8802C7.1807 12.7248 7.1948 12.5631 7.25427 12.4157C7.31374 12.2684 7.41586 12.1422 7.54754 12.0533C7.67921 11.9644 7.83445 11.9168 7.99333 11.9167C8.20016 11.9166 8.39895 11.9968 8.54774 12.1405C8.69654 12.2842 8.7837 12.48 8.79083 12.6867V12.6867ZM11.7792 12.6867C11.7864 12.8488 11.7447 13.0093 11.6594 13.1472C11.574 13.2852 11.4491 13.3942 11.3008 13.4601C11.1526 13.526 10.9879 13.5456 10.8284 13.5165C10.6688 13.4873 10.5217 13.4107 10.4063 13.2967C10.2909 13.1827 10.2126 13.0365 10.1815 12.8773C10.1505 12.7181 10.1682 12.5532 10.2323 12.4041C10.2964 12.2551 10.404 12.1289 10.5409 12.0419C10.6779 11.955 10.8379 11.9114 11 11.9167C11.2036 11.9213 11.3978 12.0036 11.5427 12.1468C11.6876 12.29 11.7722 12.4831 11.7792 12.6867V12.6867ZM14.7858 12.6867C14.7895 12.8474 14.745 13.0055 14.6582 13.1407C14.5714 13.276 14.4462 13.3822 14.2986 13.4458C14.1511 13.5094 13.9878 13.5275 13.8299 13.4977C13.672 13.4679 13.5266 13.3917 13.4123 13.2787C13.298 13.1657 13.22 13.0212 13.1884 12.8636C13.1569 12.706 13.173 12.5426 13.2349 12.3943C13.2968 12.246 13.4016 12.1196 13.5358 12.0312C13.6701 11.9429 13.8276 11.8966 13.9883 11.8984C14.1983 11.8984 14.3997 11.9811 14.549 12.1287C14.6983 12.2763 14.7834 12.4768 14.7858 12.6867ZM8.78166 15.6476C8.78046 15.7511 8.75889 15.8534 8.71816 15.9485C8.67743 16.0437 8.61835 16.13 8.5443 16.2023C8.47024 16.2747 8.38266 16.3317 8.28655 16.3702C8.19044 16.4087 8.08769 16.4279 7.98416 16.4267C7.82826 16.4249 7.6764 16.3769 7.54778 16.2888C7.41917 16.2006 7.31957 16.0763 7.26159 15.9316C7.20361 15.7869 7.18984 15.6282 7.22204 15.4757C7.25423 15.3231 7.33094 15.1835 7.44246 15.0746C7.55399 14.9656 7.69531 14.8922 7.84857 14.8635C8.00183 14.8349 8.16014 14.8523 8.30349 14.9137C8.44683 14.975 8.56877 15.0775 8.65388 15.2081C8.739 15.3387 8.78346 15.4916 8.78166 15.6476V15.6476ZM11.77 15.6476C11.7736 15.8078 11.7294 15.9656 11.643 16.1006C11.5567 16.2356 11.432 16.3419 11.2849 16.4058C11.1379 16.4696 10.9752 16.4882 10.8175 16.4592C10.6598 16.4302 10.5144 16.3549 10.3997 16.2428C10.2851 16.1308 10.2064 15.9871 10.1738 15.8301C10.1411 15.6732 10.156 15.51 10.2165 15.3616C10.277 15.2131 10.3803 15.086 10.5133 14.9965C10.6463 14.9071 10.803 14.8593 10.9633 14.8592C11.0684 14.8568 11.1729 14.8754 11.2706 14.9139C11.3684 14.9524 11.4575 15.0101 11.5327 15.0835C11.6078 15.157 11.6675 15.2447 11.7083 15.3416C11.749 15.4384 11.77 15.5425 11.77 15.6476V15.6476ZM14.7767 15.6476C14.7803 15.8078 14.7361 15.9656 14.6497 16.1006C14.5633 16.2356 14.4386 16.3419 14.2916 16.4058C14.1446 16.4696 13.9818 16.4882 13.8242 16.4592C13.6665 16.4302 13.5211 16.3549 13.4064 16.2428C13.2917 16.1308 13.2131 15.9871 13.1804 15.8301C13.1478 15.6732 13.1627 15.51 13.2231 15.3616C13.2836 15.2131 13.387 15.086 13.52 14.9965C13.653 14.9071 13.8097 14.8593 13.97 14.8592C14.0751 14.8568 14.1795 14.8754 14.2773 14.9139C14.3751 14.9524 14.4642 15.0101 14.5393 15.0835C14.6145 15.157 14.6742 15.2447 14.7149 15.3416C14.7557 15.4384 14.7767 15.5425 14.7767 15.6476V15.6476Z" />
</svg>