<svg xmlns="http://www.w3.org/2000/svg" width="24" height="25" viewBox="0 0 24 25">
    <path
        d="M12.3074 19.6376L12.4207 19.6816L13.823 20.3993C14.1178 20.5503 14.2345 20.9121 14.0838 21.207L13.4422 22.4599C13.2912 22.7549 12.9295 22.8716 12.6346 22.7206L11.2322 22.0029C10.9376 21.8518 10.8206 21.4901 10.9715 21.1952L11.6131 19.9423C11.7453 19.6844 12.0387 19.5629 12.3074 19.6376ZM3.93143 16.8241C4.6886 16.4888 5.57422 16.8309 5.90995 17.5878L6.58963 19.121C6.92525 19.8784 6.58336 20.7649 5.82596 21.1005L3.94217 21.9355C3.18501 22.2708 2.2994 21.9287 1.96366 21.1718L1.28397 19.6386C0.948358 18.8812 1.29024 17.9947 2.04764 17.6591L3.93143 16.8241ZM12.0437 21.2948L12.7332 21.6484L13.0105 21.1073L12.3211 20.7538L12.0437 21.2948ZM4.99588 17.9931C4.88394 17.7409 4.58905 17.6275 4.33671 17.7392L2.45292 18.5732C2.20045 18.685 2.08616 18.9809 2.19803 19.2333L2.87772 20.7665C2.98968 21.0187 3.28457 21.1322 3.5369 21.0204L5.42069 20.1865C5.67316 20.0746 5.78744 19.7788 5.67557 19.5263L4.99588 17.9931ZM19.8416 13.8818C20.638 13.6544 21.4675 14.1156 21.6951 14.912L22.5203 17.7958C22.748 18.5924 22.2866 19.4226 21.49 19.6503L19.5672 20.2001C18.7706 20.4278 17.9404 19.9664 17.7127 19.1698L16.8885 16.2861C16.6608 15.4897 17.1215 14.6594 17.9178 14.4316L19.8416 13.8818ZM20.116 14.8427L18.1932 15.3925C17.9277 15.4684 17.7737 15.7452 17.8494 16.0107L18.6746 18.8954C18.7506 19.1608 19.0273 19.3151 19.2928 19.2392L21.2156 18.6894C21.4809 18.6134 21.6341 18.3366 21.5584 18.0712L20.7342 15.1865C20.6583 14.921 20.3815 14.7669 20.116 14.8427ZM8.40604 11.4521C8.72178 10.7153 9.56179 10.3572 10.3123 10.6386L13.5057 11.8359C14.2195 12.1037 14.6192 12.8647 14.4344 13.6044L13.7078 16.5068C13.4818 17.4108 12.4949 17.893 11.6433 17.5146L8.09452 15.9365C7.34488 15.6031 7.00202 14.7296 7.32499 13.9755L8.40604 11.4521ZM9.96073 11.5751C9.71073 11.4814 9.43137 11.6004 9.32596 11.8456L8.24393 14.3691C8.13627 14.6205 8.25084 14.9123 8.50077 15.0234L12.0496 16.6005C12.3334 16.7267 12.6627 16.5659 12.7381 16.2646L13.4637 13.3622C13.5253 13.1156 13.3921 12.8616 13.1541 12.7724L9.96073 11.5751ZM3.30546 10.6386L3.41874 10.6825L4.50467 11.2382C4.79965 11.3892 4.91637 11.7508 4.76542 12.0458L4.12479 13.2988C3.97384 13.5937 3.61215 13.7104 3.31717 13.5595L2.23026 13.0038C1.93535 12.8529 1.81869 12.4912 1.96952 12.1962L2.61112 10.9433L2.67655 10.8407C2.82609 10.6539 3.07491 10.5743 3.30546 10.6386ZM3.04178 12.2948L3.41581 12.4872L3.69315 11.9462L3.31815 11.7538L3.04178 12.2948ZM14.5183 2.95501C14.9195 2.35351 15.6927 2.12436 16.3572 2.40911L18.9695 3.52825C19.7378 3.85777 20.0882 4.75156 19.7488 5.51555L18.2439 8.90129C17.8361 9.81883 16.6596 10.0849 15.8973 9.43157L13.282 7.18938C12.7062 6.6958 12.5891 5.84984 13.0096 5.21868L14.5183 2.95501ZM15.9637 3.32805C15.7422 3.23313 15.4841 3.30926 15.3504 3.50969L13.8416 5.77336C13.7018 5.98361 13.7408 6.26513 13.9324 6.42961L16.5486 8.6718C16.8028 8.8894 17.1949 8.80082 17.3308 8.49504L18.8348 5.1093C18.9478 4.85463 18.8311 4.55696 18.575 4.44719L15.9637 3.32805ZM4.77225 2.97747C5.0667 2.38865 5.71076 2.06082 6.36014 2.16887L7.92655 2.42961C8.9488 2.60018 9.49418 3.73157 8.991 4.63762L7.24588 7.77825C6.76191 8.6494 5.57849 8.81496 4.87381 8.11028L3.86014 7.09661C3.4036 6.64007 3.29015 5.94167 3.57889 5.36419L4.77225 2.97747ZM6.19608 3.1552C5.97962 3.11916 5.76495 3.22848 5.66678 3.42473L4.47342 5.81145C4.37719 6.00392 4.41505 6.23642 4.56717 6.3886L5.58182 7.40325C5.81669 7.63794 6.21051 7.58308 6.37186 7.2929L8.11698 4.15227C8.28474 3.85022 8.10233 3.47275 7.76151 3.41594L6.19608 3.1552Z" />
</svg>