<svg width="18" height="24" viewBox="0 0 18 24" xmlns="http://www.w3.org/2000/svg">
    <path
        d="M1.00253 21.3411C1.00266 20.5165 1.52948 19.8925 2.05624 19.5803L2.13242 13.635C1.60653 13.3735 1.00755 12.8213 1.00253 11.844C0.999335 11.2087 1.24067 10.6564 1.69492 10.2796C1.8326 10.1654 1.98015 10.0766 2.13046 10.0071L2.05332 5.17507C1.42218 4.8297 1.00253 4.16427 1.00253 3.3821C1.00253 2.66174 1.33998 2.11004 1.80429 1.76882C2.23043 1.45569 2.73294 1.33718 3.14316 1.33718V2.33718L2.95859 2.35085C2.51546 2.4159 2.00254 2.7171 2.00253 3.3821C2.00253 3.80818 2.23372 4.15001 2.56796 4.31667C2.81218 4.4385 3.04594 4.64639 3.05039 4.91921L3.14218 10.7337C3.1427 10.7668 3.11569 10.794 3.08261 10.7952L2.87656 10.8157C2.40427 10.8946 1.99924 11.1974 2.00253 11.8391C2.00527 12.3707 2.33354 12.6449 2.65097 12.7766C2.90836 12.8834 3.1399 13.1123 3.13632 13.3909L3.05429 19.803L3.04257 19.9026C2.99216 20.1299 2.78641 20.3138 2.57871 20.4329L2.46347 20.5081C2.20221 20.7001 2.00265 21.0039 2.00253 21.3411C2.00253 22.0064 2.5848 22.3085 2.98496 22.3733L3.14316 22.387H15.6861C16.2561 22.3869 16.731 22.1011 16.731 21.3411C16.731 20.9233 16.5205 20.6489 16.273 20.4866L16.1646 20.4241C15.9496 20.3135 15.7437 20.1268 15.6959 19.8967L15.6861 19.7962V13.4397C15.6861 13.1797 15.893 12.971 16.1275 12.8587C16.3979 12.7291 16.6568 12.4813 16.7174 12.0403L16.731 11.8391C16.731 11.3867 16.5196 11.1183 16.275 10.9671L16.1685 10.9094C15.9504 10.8056 15.7439 10.6236 15.6959 10.3948L15.6861 10.2942V4.97487C15.6861 4.7178 15.8905 4.51475 16.1187 4.3821L16.2184 4.32936C16.4887 4.19834 16.731 3.92015 16.731 3.3821C16.731 2.58409 16.0524 2.35809 15.5855 2.33522L15.401 2.33718H3.14316V1.33718H15.3766C15.7265 1.31935 16.2399 1.37081 16.7115 1.62819C17.2738 1.93521 17.731 2.52126 17.731 3.3821C17.731 3.80472 17.6345 4.19746 17.4273 4.53347C17.228 4.85675 16.9579 5.07411 16.6861 5.21218V10.054C17.2237 10.3428 17.731 10.9197 17.731 11.8391C17.731 12.7753 17.2414 13.3799 16.6861 13.6936V19.5716C17.2022 19.8603 17.7309 20.4369 17.731 21.3411C17.731 21.9397 17.5353 22.5038 17.0807 22.9016C16.65 23.2785 16.1224 23.3869 15.6861 23.387H3.14316C2.75529 23.387 2.26855 23.2561 1.85703 22.968C1.40844 22.654 1.00253 22.1106 1.00253 21.3411Z" />

    <path
        d="M11.7057 12.835C11.7057 12.4439 11.5587 11.9939 11.2975 11.5137C11.0391 11.0385 10.6883 10.5692 10.3268 10.1494C9.96674 9.7312 9.60493 9.37189 9.3327 9.11719C9.2881 9.07546 9.24497 9.03772 9.20575 9.00195C9.16653 9.03772 9.1234 9.07546 9.0788 9.11719C8.80656 9.37189 8.44476 9.7312 8.08466 10.1494C7.72321 10.5692 7.37239 11.0385 7.11395 11.5137C6.85279 11.9939 6.70575 12.4439 6.70575 12.835C6.70575 14.2157 7.82504 15.335 9.20575 15.335C10.5865 15.335 11.7057 14.2157 11.7057 12.835ZM12.7057 12.835C12.7057 14.768 11.1387 16.335 9.20575 16.335C7.27275 16.335 5.70575 14.768 5.70575 12.835C5.70575 12.2103 5.93382 11.5901 6.23505 11.0361C6.53905 10.4772 6.93837 9.94825 7.32684 9.49707C7.71659 9.04444 8.10497 8.65925 8.3952 8.3877C8.54065 8.25162 8.66279 8.14322 8.74872 8.06836C8.79168 8.03094 8.82555 8.00152 8.8493 7.98145C8.86108 7.97149 8.87013 7.96344 8.87665 7.95801C8.87991 7.95529 8.8826 7.95271 8.88446 7.95117C8.88534 7.95044 8.88684 7.95065 8.88739 7.9502V7.94922L9.20575 7.6875L9.52313 7.94922H9.52411V7.9502C9.52466 7.95065 9.52616 7.95044 9.52704 7.95117C9.5289 7.95271 9.53159 7.95529 9.53485 7.95801C9.54137 7.96344 9.55042 7.97149 9.56219 7.98145C9.58595 8.00152 9.61982 8.03094 9.66278 8.06836C9.74871 8.14322 9.87085 8.25162 10.0163 8.3877C10.3065 8.65925 10.6949 9.04444 11.0847 9.49707C11.4731 9.94825 11.8724 10.4772 12.1765 11.0361C12.4777 11.5901 12.7057 12.2103 12.7057 12.835Z" />

</svg>