<svg xmlns="http://www.w3.org/2000/svg" width="24" height="24" viewBox="0 0 24 24">
    <path
        d="M12 0.5C17.2467 0.5 21.5 4.75329 21.5 10C21.5 15.079 17.5143 19.2263 12.5 19.4863V22.5H21V23.5H3V22.5H11.5V19.4863C6.48574 19.2263 2.5 15.079 2.5 10C2.5 4.75329 6.75329 0.5 12 0.5ZM12 1.5C7.30558 1.5 3.5 5.30558 3.5 10C3.5 14.6944 7.30558 18.5 12 18.5C16.6944 18.5 20.5 14.6944 20.5 10C20.5 5.30558 16.6944 1.5 12 1.5ZM17.3047 14.6006L16.5977 15.3076L15.1836 13.8936L15.8906 13.1865L17.3047 14.6006ZM8.81934 13.8857L7.40527 15.2998L6.69824 14.5928L8.1123 13.1787L8.81934 13.8857ZM14.8535 7.85352L12.9648 9.74121C12.987 9.82386 13 9.91038 13 10C13 10.5523 12.5523 11 12 11C11.4477 11 11 10.5523 11 10C11 9.44772 11.4477 9 12 9C12.0892 9 12.1755 9.01227 12.2578 9.03418L14.1465 7.14648L14.8535 7.85352ZM7.00781 10.5059H5.00781V9.50586H7.00781V10.5059ZM19.0078 10.5059H17.0078V9.50586H19.0078V10.5059ZM8.81934 6.11523L8.1123 6.82227L6.69824 5.4082L7.40527 4.70117L8.81934 6.11523ZM17.3047 5.40039L15.8906 6.81445L15.1836 6.10742L16.5977 4.69336L17.3047 5.40039ZM12.5 5H11.5V3H12.5V5Z" />
</svg>