<svg xmlns="http://www.w3.org/2000/svg" width="19" height="24" viewBox="0 0 19 24">
    <path
        d="M9.99731 0.5C12.2503 0.5 14.3124 0.84138 15.8293 1.41016C16.586 1.6939 17.2336 2.04407 17.7004 2.45801C18.1667 2.87143 18.4973 3.39145 18.4973 4V20C18.4973 20.6086 18.1667 21.1286 17.7004 21.542C17.2336 21.9559 16.586 22.3061 15.8293 22.5898C14.3124 23.1586 12.2503 23.5 9.99731 23.5C7.74432 23.5 5.68225 23.1586 4.16528 22.5898C3.40863 22.3061 2.76107 21.9559 2.29419 21.542C1.82789 21.1286 1.49731 20.6086 1.49731 20V4C1.49731 3.39145 1.82789 2.87143 2.29419 2.45801C2.76107 2.04407 3.40863 1.6939 4.16528 1.41016C5.68225 0.84138 7.74432 0.5 9.99731 0.5ZM17.4973 5.70801C17.0529 6.04994 16.4821 6.34507 15.8293 6.58984C14.3124 7.15862 12.2503 7.5 9.99731 7.5C7.74432 7.5 5.68225 7.15862 4.16528 6.58984C3.51255 6.34507 2.94172 6.04994 2.49731 5.70801V20C2.49731 20.2199 2.61399 20.4896 2.95728 20.7939C3.30002 21.0978 3.82485 21.3942 4.51587 21.6533C5.89429 22.1702 7.83226 22.5 9.99731 22.5C12.1624 22.5 14.1003 22.1702 15.4788 21.6533C16.1698 21.3942 16.6946 21.0978 17.0374 20.7939C17.3806 20.4896 17.4973 20.2199 17.4973 20V5.70801ZM13.9973 18C14.5496 18 14.9973 18.4477 14.9973 19C14.9973 19.5523 14.5496 20 13.9973 20C13.445 20 12.9973 19.5523 12.9973 19C12.9973 18.4477 13.445 18 13.9973 18ZM5.49731 18C5.77346 18 5.99731 18.2239 5.99731 18.5C5.99731 18.7761 5.77346 19 5.49731 19C5.22117 19 4.99731 18.7761 4.99731 18.5C4.99731 18.2239 5.22117 18 5.49731 18ZM9.16919 14.5C9.99762 14.5 10.6692 15.1716 10.6692 16C10.6692 16.8284 9.99762 17.5 9.16919 17.5C8.34076 17.5 7.66919 16.8284 7.66919 16C7.66919 15.1716 8.34076 14.5 9.16919 14.5ZM14.4973 15C14.7735 15 14.9973 15.2239 14.9973 15.5C14.9973 15.7761 14.7735 16 14.4973 16C14.2212 16 13.9973 15.7761 13.9973 15.5C13.9973 15.2239 14.2212 15 14.4973 15ZM6.49731 12C6.77346 12 6.99731 12.2239 6.99731 12.5C6.99731 12.7761 6.77346 13 6.49731 13C6.22117 13 5.99731 12.7761 5.99731 12.5C5.99731 12.2239 6.22117 12 6.49731 12ZM11.9973 11C12.5496 11 12.9973 11.4477 12.9973 12C12.9973 12.5523 12.5496 13 11.9973 13C11.445 13 10.9973 12.5523 10.9973 12C10.9973 11.4477 11.445 11 11.9973 11ZM15.4973 10C15.7735 10 15.9973 10.2239 15.9973 10.5C15.9973 10.7761 15.7735 11 15.4973 11C15.2212 11 14.9973 10.7761 14.9973 10.5C14.9973 10.2239 15.2212 10 15.4973 10ZM4.74731 9C5.16153 9 5.49731 9.33579 5.49731 9.75C5.49731 10.1642 5.16153 10.5 4.74731 10.5C4.3331 10.5 3.99731 10.1642 3.99731 9.75C3.99731 9.33579 4.3331 9 4.74731 9ZM9.99731 1.5C7.83226 1.5 5.89429 1.82977 4.51587 2.34668C3.82485 2.60582 3.30002 2.90217 2.95728 3.20605C2.61399 3.51044 2.49731 3.78014 2.49731 4C2.49731 4.21986 2.61399 4.48956 2.95728 4.79395C3.30002 5.09782 3.82485 5.39418 4.51587 5.65332C5.89429 6.17023 7.83226 6.5 9.99731 6.5C12.1624 6.5 14.1003 6.17023 15.4788 5.65332C16.1698 5.39418 16.6946 5.09782 17.0374 4.79395C17.3806 4.48956 17.4973 4.21986 17.4973 4C17.4973 3.78014 17.3806 3.51044 17.0374 3.20605C16.6946 2.90217 16.1698 2.60582 15.4788 2.34668C14.1003 1.82977 12.1624 1.5 9.99731 1.5Z" />
</svg>