<svg xmlns="http://www.w3.org/2000/svg" width="25" height="24" viewBox="0 0 25 24">
    <path
        d="M20.3333 7.5C21.714 7.5 22.8333 8.61929 22.8333 10V20C22.8333 21.3807 21.714 22.5 20.3333 22.5H10.3333C8.95254 22.5 7.83325 21.3807 7.83325 20V18C7.83325 17.7239 8.05711 17.5 8.33325 17.5C8.60939 17.5 8.83325 17.7239 8.83325 18V20C8.83325 20.8284 9.50482 21.5 10.3333 21.5H20.3333C21.1617 21.5 21.8333 20.8284 21.8333 20V10C21.8333 9.17157 21.1617 8.5 20.3333 8.5H18.4973C18.2212 8.5 17.9973 8.27614 17.9973 8C17.9973 7.72386 18.2212 7.5 18.4973 7.5H20.3333ZM14.3333 1.5C15.714 1.5 16.8333 2.61929 16.8333 4V14C16.8333 15.3807 15.714 16.5 14.3333 16.5H4.33325C2.95254 16.5 1.83325 15.3807 1.83325 14V4C1.83325 2.61929 2.95254 1.5 4.33325 1.5H14.3333ZM3.68774 15.3516C3.88354 15.4452 4.10172 15.5 4.33325 15.5H6.12622L15.8333 5.79297V4C15.8333 3.76847 15.7785 3.55028 15.6848 3.35449L3.68774 15.3516ZM7.54028 15.5H10.1262L15.8333 9.79297V7.20703L7.54028 15.5ZM11.5403 15.5H14.3333C15.1617 15.5 15.8333 14.8284 15.8333 14V11.207L11.5403 15.5ZM12.3635 2.67676C12.3565 2.68376 12.35 2.69125 12.343 2.69824C12.336 2.70524 12.3285 2.71176 12.3215 2.71875L11.7756 3.26465C11.7687 3.27155 11.762 3.27924 11.7551 3.28613C11.7482 3.29302 11.7405 3.29976 11.7336 3.30664L11.426 3.61426C11.4193 3.62093 11.4132 3.6281 11.4065 3.63477C11.3998 3.64143 11.3926 3.64763 11.386 3.6543L11.2639 3.77637C11.2572 3.78304 11.2511 3.7902 11.2444 3.79688C11.2377 3.80355 11.2305 3.80974 11.2239 3.81641L10.9631 4.07715C10.9565 4.08379 10.9502 4.09102 10.9436 4.09766C10.937 4.10429 10.9297 4.11056 10.9231 4.11719L10.6663 4.37402C10.6597 4.38058 10.6533 4.38798 10.6467 4.39453C10.6402 4.40109 10.6328 4.40751 10.6262 4.41406L9.88989 5.15039C9.88355 5.15674 9.87768 5.16358 9.87134 5.16992C9.86499 5.17627 9.85815 5.18213 9.85181 5.18848L9.62329 5.41699C9.61697 5.42331 9.61105 5.43021 9.60474 5.43652C9.59841 5.44285 9.59152 5.44876 9.58521 5.45508L9.52856 5.51172C9.52226 5.51802 9.51631 5.52495 9.51001 5.53125C9.5037 5.53756 9.49678 5.5435 9.49048 5.5498L9.35864 5.68164C9.35236 5.68792 9.34637 5.69489 9.34009 5.70117C9.33382 5.70744 9.32683 5.71346 9.32056 5.71973L9.20825 5.83203C9.20199 5.83829 9.19595 5.84531 9.1897 5.85156C9.18344 5.85782 9.17642 5.86386 9.17017 5.87012L9.1145 5.92578C9.10826 5.93203 9.10219 5.93907 9.09595 5.94531C9.08971 5.95155 9.08265 5.95763 9.07642 5.96387L8.79712 6.24316C8.79091 6.24937 8.78477 6.25649 8.77856 6.2627C8.77238 6.26888 8.76619 6.27507 8.76001 6.28125C8.75381 6.28745 8.74668 6.2936 8.74048 6.2998L8.38794 6.65234C8.38192 6.65837 8.37638 6.66488 8.37036 6.6709C8.36434 6.67692 8.35783 6.68246 8.35181 6.68848L8.12915 6.91113C8.12313 6.91716 8.11759 6.92367 8.11157 6.92969C8.10555 6.93571 8.09904 6.94125 8.09302 6.94727L7.94458 7.0957C7.93856 7.10172 7.93302 7.10824 7.927 7.11426C7.92098 7.12028 7.91447 7.12581 7.90845 7.13184L7.77856 7.26172C7.77255 7.26773 7.767 7.27426 7.76099 7.28027C7.75496 7.2863 7.74845 7.29183 7.74243 7.29785L7.6311 7.40918C7.62508 7.4152 7.61955 7.42171 7.61353 7.42773C7.60751 7.43375 7.60098 7.4393 7.59497 7.44531L7.46509 7.5752C7.45907 7.58122 7.45353 7.58773 7.44751 7.59375C7.44149 7.59977 7.43498 7.60531 7.42896 7.61133L7.28052 7.75977C7.2745 7.76578 7.26896 7.7723 7.26294 7.77832C7.25692 7.78434 7.25041 7.78988 7.24438 7.7959L7.02173 8.01855C7.01571 8.02458 7.01017 8.03109 7.00415 8.03711C6.99813 8.04313 6.99162 8.04866 6.9856 8.05469L6.63306 8.40723C6.62686 8.41343 6.6207 8.42056 6.6145 8.42676C6.60832 8.43294 6.60213 8.43913 6.59595 8.44531C6.58974 8.45152 6.58262 8.45766 6.57642 8.46387L6.29712 8.74316C6.29088 8.7494 6.2848 8.75646 6.27856 8.7627C6.27232 8.76894 6.26528 8.775 6.25903 8.78125L6.20337 8.83691C6.19712 8.84317 6.19107 8.85019 6.18481 8.85645C6.17856 8.8627 6.17154 8.86874 6.16528 8.875L6.05298 8.9873C6.04671 8.99357 6.0407 9.00056 6.03442 9.00684C6.02815 9.01311 6.02117 9.01911 6.01489 9.02539L5.88306 9.15723C5.87675 9.16353 5.87081 9.17045 5.8645 9.17676C5.8582 9.18306 5.85128 9.18901 5.84497 9.19531L5.78833 9.25195C5.78201 9.25827 5.7761 9.26516 5.76978 9.27148C5.76346 9.2778 5.75656 9.28372 5.75024 9.29004L5.52173 9.51855C5.51538 9.5249 5.50952 9.53174 5.50317 9.53809C5.49683 9.54443 5.48999 9.55029 5.48364 9.55664L4.74731 10.293C4.74076 10.2995 4.73434 10.3069 4.72778 10.3135C4.72123 10.32 4.71383 10.3265 4.70728 10.333L4.45044 10.5898C4.44381 10.5965 4.43755 10.6037 4.43091 10.6104C4.42427 10.617 4.41705 10.6232 4.4104 10.6299L4.14966 10.8906C4.14299 10.8973 4.1368 10.9045 4.13013 10.9111C4.12346 10.9178 4.1163 10.924 4.10962 10.9307L3.98755 11.0527C3.98089 11.0594 3.97469 11.0666 3.96802 11.0732C3.96135 11.0799 3.95419 11.0861 3.94751 11.0928L3.63989 11.4004C3.63301 11.4073 3.62627 11.415 3.61938 11.4219C3.61249 11.4288 3.6048 11.4355 3.5979 11.4424L3.052 11.9883C3.04501 11.9953 3.0385 12.0028 3.03149 12.0098C3.0245 12.0168 3.01701 12.0233 3.01001 12.0303L2.83325 12.207V14C2.83325 14.2311 2.88739 14.449 2.98071 14.6445L14.9778 2.64746C14.7823 2.55413 14.5643 2.5 14.3333 2.5H12.5403L12.3635 2.67676ZM2.83325 8.20703V10.793L2.89087 10.7354C2.89777 10.7284 2.90448 10.7208 2.91138 10.7139C2.91826 10.707 2.92598 10.7002 2.93286 10.6934L3.24048 10.3857C3.24715 10.3791 3.25334 10.3719 3.26001 10.3652C3.26668 10.3586 3.27385 10.3524 3.28052 10.3457L3.40259 10.2236C3.40926 10.217 3.41545 10.2098 3.42212 10.2031C3.42879 10.1965 3.43596 10.1903 3.44263 10.1836L3.70337 9.92285C3.71001 9.91621 3.71626 9.90898 3.7229 9.90234C3.72954 9.89571 3.73678 9.88944 3.74341 9.88281L4.00024 9.62598C4.0068 9.61942 4.01322 9.61202 4.01978 9.60547C4.02633 9.59891 4.03373 9.59249 4.04028 9.58594L4.77661 8.84961C4.78296 8.84326 4.78882 8.83642 4.79517 8.83008C4.80152 8.82373 4.80835 8.81787 4.8147 8.81152L5.04321 8.58301C5.04953 8.57669 5.05545 8.56979 5.06177 8.56348C5.06809 8.55715 5.07498 8.55124 5.0813 8.54492L5.13794 8.48828C5.14424 8.48198 5.15019 8.47505 5.15649 8.46875C5.1628 8.46244 5.16972 8.4565 5.17603 8.4502L5.30786 8.31836C5.31414 8.31208 5.32014 8.30511 5.32642 8.29883C5.33269 8.29256 5.33968 8.28654 5.34595 8.28027L5.45825 8.16797C5.46451 8.16171 5.47055 8.15469 5.47681 8.14844C5.48306 8.14218 5.49009 8.13614 5.49634 8.12988L5.552 8.07422C5.55825 8.06797 5.56431 8.06093 5.57056 8.05469C5.57679 8.04845 5.58385 8.04237 5.59009 8.03613L5.86938 7.75684C5.87559 7.75063 5.88174 7.74351 5.88794 7.7373C5.89413 7.73112 5.90031 7.72493 5.90649 7.71875C5.9127 7.71255 5.91982 7.7064 5.92603 7.7002L6.27856 7.34766C6.28459 7.34163 6.29012 7.33512 6.29614 7.3291C6.30216 7.32308 6.30868 7.31754 6.3147 7.31152L6.53735 7.08887C6.54338 7.08284 6.54891 7.07633 6.55493 7.07031C6.56095 7.06429 6.56747 7.05875 6.57349 7.05273L6.72192 6.9043C6.72795 6.89828 6.73348 6.89176 6.7395 6.88574C6.74552 6.87972 6.75203 6.87419 6.75806 6.86816L6.88794 6.73828C6.89395 6.73227 6.8995 6.72574 6.90552 6.71973C6.91154 6.7137 6.91805 6.70817 6.92407 6.70215L7.0354 6.59082C7.04142 6.5848 7.04696 6.57829 7.05298 6.57227C7.05899 6.56625 7.06552 6.5607 7.07153 6.55469L7.20142 6.4248C7.20744 6.41878 7.21297 6.41227 7.21899 6.40625C7.22502 6.40023 7.23153 6.39469 7.23755 6.38867L7.38599 6.24023C7.39201 6.23422 7.39754 6.2277 7.40356 6.22168C7.40959 6.21566 7.4161 6.21012 7.42212 6.2041L7.64478 5.98145C7.6508 5.97543 7.65633 5.96891 7.66235 5.96289C7.66838 5.95687 7.67489 5.95134 7.68091 5.94531L8.03345 5.59277C8.03965 5.58657 8.0458 5.57944 8.052 5.57324C8.05819 5.56706 8.06437 5.56087 8.07056 5.55469C8.07676 5.54848 8.08388 5.54234 8.09009 5.53613L8.36938 5.25684C8.37562 5.2506 8.3817 5.24354 8.38794 5.2373C8.39418 5.23106 8.40123 5.225 8.40747 5.21875L8.46313 5.16309C8.46939 5.15683 8.47543 5.14981 8.48169 5.14355C8.48795 5.1373 8.49496 5.13126 8.50122 5.125L8.61353 5.0127C8.61979 5.00643 8.62581 4.99944 8.63208 4.99316C8.63836 4.98689 8.64533 4.98089 8.65161 4.97461L8.78345 4.84277C8.78975 4.83647 8.7957 4.82955 8.802 4.82324C8.8083 4.81694 8.81523 4.81099 8.82153 4.80469L8.87817 4.74805C8.88449 4.74173 8.89041 4.73484 8.89673 4.72852C8.90305 4.7222 8.90994 4.71628 8.91626 4.70996L9.14478 4.48145C9.15112 4.4751 9.15698 4.46826 9.16333 4.46191C9.16967 4.45557 9.17651 4.44971 9.18286 4.44336L9.91919 3.70703C9.92574 3.70048 9.93216 3.69308 9.93872 3.68652C9.94527 3.67997 9.95267 3.67355 9.95923 3.66699L10.2161 3.41016C10.2227 3.40352 10.229 3.39629 10.2356 3.38965C10.2422 3.38301 10.2495 3.37676 10.2561 3.37012L10.5168 3.10938C10.5235 3.10271 10.5297 3.09554 10.5364 3.08887C10.543 3.0822 10.5502 3.07601 10.5569 3.06934L10.679 2.94727C10.6856 2.9406 10.6918 2.93343 10.6985 2.92676C10.7052 2.92009 10.7123 2.9139 10.719 2.90723L11.0266 2.59961C11.0335 2.59273 11.0402 2.58501 11.0471 2.57812C11.054 2.57123 11.0617 2.56452 11.0686 2.55762L11.1262 2.5H8.54028L2.83325 8.20703ZM4.33325 2.5C3.50482 2.5 2.83325 3.17157 2.83325 4V6.79297L7.12622 2.5H4.33325Z" />
</svg>