<svg xmlns="http://www.w3.org/2000/svg" width="25" height="24" viewBox="0 0 25 24">
    <path
        d="M2.89412 16.7778C3.06452 15.7554 4.19601 15.2093 5.10213 15.7124L8.24275 17.4575C9.11391 17.9415 9.27946 19.1249 8.57478 19.8296L7.56111 20.8442C7.10457 21.3008 6.40617 21.4133 5.82869 21.1245L3.44197 19.9312C2.85315 19.6367 2.52523 18.9927 2.63338 18.3433L2.89412 16.7778ZM18.9967 17.7778C19.823 17.7235 20.5367 18.3489 20.5914 19.1753L20.6168 19.5474C20.6714 20.374 20.0449 21.0884 19.2183 21.1431L18.2545 21.2066C17.4281 21.261 16.7135 20.6355 16.6588 19.8091L16.6344 19.437C16.5797 18.6104 17.2062 17.8959 18.0328 17.8413L18.9967 17.7778ZM4.61678 16.5864C4.31474 16.4188 3.93725 16.6011 3.88045 16.9419L3.61971 18.5073C3.58363 18.7238 3.69301 18.9384 3.88924 19.0366L6.27596 20.23C6.46845 20.3262 6.70092 20.2884 6.8531 20.1362L7.86775 19.1226C8.10262 18.8877 8.04771 18.4929 7.7574 18.3316L4.61678 16.5864ZM18.0982 18.8394C17.8229 18.8577 17.6144 19.0953 17.6324 19.3706L17.6568 19.7427C17.675 20.0182 17.9135 20.2267 18.189 20.2085L19.1529 20.145C19.4283 20.1267 19.6369 19.8883 19.6187 19.6128L19.5943 19.2417C19.5761 18.9662 19.3376 18.7577 19.0621 18.7759L18.0982 18.8394ZM12.3004 11.1978C12.5682 10.484 13.3293 10.0851 14.0689 10.27L16.9713 10.9956C17.8753 11.2216 18.3575 12.2085 17.9791 13.0601L16.401 16.6089C16.0677 17.3587 15.1942 17.7015 14.44 17.3784L11.9166 16.2974C11.1799 15.9817 10.8218 15.1425 11.1031 14.3921L12.3004 11.1978ZM13.8267 11.2398C13.5802 11.1781 13.3262 11.3114 13.2369 11.5493L12.0396 14.7427C11.9458 14.9928 12.0647 15.2731 12.3101 15.3784L14.8336 16.4595C15.085 16.5672 15.3768 16.4526 15.4879 16.2026L17.065 12.6538C17.1912 12.37 17.0304 12.0407 16.7291 11.9653L13.8267 11.2398ZM3.99275 5.73487C4.32212 4.96634 5.21595 4.61519 5.98006 4.9546L9.3658 6.45948C10.2833 6.86726 10.5493 8.04376 9.89607 8.80616L7.65389 11.4214C7.16028 11.9973 6.31435 12.1144 5.68318 11.6939L3.41951 10.1851C2.81805 9.78392 2.58881 9.01073 2.87361 8.3462L3.99275 5.73487ZM5.57381 5.86866C5.31915 5.75568 5.02146 5.87232 4.9117 6.12843L3.79256 8.73975C3.69765 8.9612 3.77384 9.21929 3.9742 9.35304L6.23787 10.8618C6.44817 11.0018 6.72963 10.9627 6.89412 10.771L9.13631 8.15577C9.35413 7.90164 9.26541 7.50948 8.95955 7.37354L5.57381 5.86866ZM18.2603 2.18311C19.0568 1.95545 19.8871 2.41696 20.1148 3.21339L20.6646 5.13624C20.8923 5.93276 20.4309 6.76305 19.6344 6.99073L16.7506 7.81593C15.9541 8.04359 15.1238 7.58204 14.8961 6.78565L14.3463 4.8628C14.1186 4.06628 14.58 3.23599 15.3765 3.00831L18.2603 2.18311ZM18.5357 3.14503L15.651 3.96925C15.3856 4.04511 15.2315 4.32201 15.3072 4.58741L15.857 6.51026C15.9329 6.7757 16.2097 6.92976 16.4752 6.85401L19.3599 6.02979C19.6253 5.95394 19.7793 5.67701 19.7037 5.41163L19.1539 3.48878C19.078 3.22338 18.8011 3.06935 18.5357 3.14503Z" />
</svg>