<svg width="124" height="97" viewBox="0 0 124 97" fill="none" xmlns="http://www.w3.org/2000/svg">
    <path opacity="0.15"
        d="M123.493 3.1875C120.887 37.8535 111.296 55.0193 99.333 61.6768C88.1678 67.8904 75.9774 64.4035 67.7061 59.2393C62.1393 65.6243 59.7969 73.9624 59.1465 81.9961C58.7097 87.3912 59.0462 92.5398 59.6201 96.6543C59.8108 98.0217 58.8567 99.2848 57.4893 99.4756C56.1219 99.6663 54.8589 98.713 54.668 97.3457C54.0847 93.1641 53.7274 87.9579 54.1016 82.4336C51.1217 77.7352 46.1886 70.6432 40.6387 63.9609C34.7674 67.769 26.2463 70.4372 18.2695 66.2051C9.42597 61.5129 2.55798 48.9815 0.508789 23.9395L0.285156 21.2129L3.02051 21.2354C12.6488 21.3136 26.4381 23.2659 36.0303 29.1748C40.8792 32.1618 44.8568 36.289 46.4766 41.8779C47.9922 47.1079 47.3248 53.2119 44.0381 60.2305C48.2237 65.2246 52.0814 70.4664 55.0947 74.8672C56.4513 68.089 59.1965 61.2162 64.2773 55.5664C59.3344 45.8281 58.2758 37.4071 60.291 30.2148C62.4108 22.6502 67.7957 16.9229 74.5078 12.6621C87.8376 4.20055 107.246 0.967639 120.915 0.500977L123.702 0.40625L123.493 3.1875ZM5.74512 26.3096C8.02627 49.0197 14.4324 58.5087 20.6133 61.7881C26.1123 64.7056 32.3956 63.1765 37.3447 60.1338C32.597 54.8266 27.7579 50.3442 23.5508 48.0469C22.3391 47.3851 21.893 45.8661 22.5547 44.6543C23.2165 43.4427 24.7356 42.9975 25.9473 43.6592C30.6674 46.2367 35.708 50.8941 40.3994 56.0557C42.4915 50.7873 42.6396 46.6004 41.6748 43.2705C40.5073 39.2418 37.5786 36.0018 33.4082 33.4326C25.7736 28.7296 14.6613 26.7102 5.74512 26.3096ZM118.274 5.63184C105.271 6.41111 88.5701 9.65821 77.1875 16.8838C71.1241 20.7328 66.7851 25.5696 65.1055 31.5635C63.6087 36.9051 64.1185 43.548 68.0029 51.8076C73.51 46.4297 79.7356 40.6644 85.2939 35.5469C91.7386 29.6133 97.215 24.6142 99.7754 21.9893C100.739 21.001 102.322 20.9816 103.311 21.9453C104.299 22.9093 104.319 24.4921 103.355 25.4805C100.672 28.2314 95.0398 33.3708 88.6807 39.2256C83.0503 44.4094 76.7927 50.2054 71.3027 55.5742C78.6281 59.8545 88.3407 62.0717 96.9014 57.3076C106.28 52.0882 115.406 37.9003 118.274 5.63184Z"
        fill="#F4F4F4" />
</svg>