<svg width="101" height="111" viewBox="0 0 101 111" fill="none" xmlns="http://www.w3.org/2000/svg">
    <path fill-rule="evenodd" clip-rule="evenodd"
        d="M51.3536 101.326L51.3544 107.246H51.6084C52.384 107.246 53.0187 106.612 53.0187 105.836V101.889C53.0187 101.114 52.384 100.479 51.6084 100.479H45.0055C44.2299 100.479 43.5953 101.114 43.5953 101.889V105.836C43.5953 106.612 44.2301 107.246 45.0055 107.246H45.2663V101.326H51.3536ZM51.3545 108.267L51.3547 110.482H46.0619C45.6246 110.482 45.2663 110.226 45.2663 109.914V108.267H43.936C41.9245 108.267 40.279 106.619 40.279 104.604V103.122C40.279 101.107 41.9245 99.4581 43.936 99.4581H52.6866C54.698 99.4581 56.3436 101.107 56.3436 103.122V104.604C56.3436 106.619 54.698 108.267 52.6866 108.267H51.3546H51.3545ZM0.857178 99.4588L12.7426 99.4585C13.1246 99.4585 13.5536 99.8862 13.5536 100.268V100.654H10.2642L10.2652 110.482H4.97247C4.53499 110.482 4.17682 110.226 4.17682 109.914V100.654H1.66845C1.28594 100.654 0.857178 100.226 0.857178 99.8441V99.4588ZM20.1863 99.4585C18.8571 99.4585 17.5276 99.4585 16.1988 99.4585L12.2445 109.668C12.1241 109.979 12.4933 110.482 12.827 110.482H19.528L18.0793 106.659C17.8659 106.096 17.1689 105.671 16.5665 105.671H14.6904L16.7064 100.466L20.1014 109.44C20.3215 110.022 21.0278 110.482 21.6499 110.482H25.3068L21.4177 100.202C21.248 99.7532 20.6657 99.4584 20.1862 99.4584L20.1863 99.4585ZM38.9518 110.482H38.8109C38.3953 110.482 37.8503 110.103 37.8503 109.687V101.208L32.7929 109.648C32.5093 110.122 31.9144 110.482 31.3625 110.482H27.476C27.0959 110.482 26.7218 110.007 26.7218 109.627V99.4584H26.8627C27.2783 99.4584 27.8232 99.8378 27.8232 100.253V108.718L32.7712 100.46C33.0925 99.9242 33.3431 99.4584 34.5924 99.4584H38.0992C38.489 99.4584 38.9518 99.8688 38.9518 100.259V110.482V110.482Z"
        fill="white" />
    <path
        d="M67.1113 105.798H60.072C60.072 105.112 60.6282 104.556 61.3143 104.556H68.3536C68.3536 105.242 67.7974 105.798 67.1113 105.798Z"
        fill="white" />
    <path
        d="M73.322 99.587C74.2368 99.587 74.9783 100.329 74.9783 101.243V104.97H79.9473V99.587H84.9162C85.3736 99.587 85.7444 99.9578 85.7444 100.415V110.353H80.7754C80.318 110.353 79.9473 109.982 79.9473 109.525V106.212H74.9783V110.353C74.0636 110.353 73.322 109.612 73.322 108.697V99.587Z"
        fill="white" />
    <path
        d="M88.2283 99.587C89.143 99.587 89.8846 100.329 89.8846 101.243V107.961L94.9407 100.657C95.4048 99.987 96.1681 99.587 96.9834 99.587H100.299C100.628 99.587 100.826 99.9523 100.646 100.228L97.2906 105.359L100.858 110.353H99.6275C99.3601 110.353 99.1091 110.224 98.9536 110.006L96.499 106.57L94.5157 109.603C94.2097 110.071 93.6884 110.353 93.1294 110.353H89.0564C88.599 110.353 88.2283 109.982 88.2283 109.525V99.587Z"
        fill="white" />
    <path fill-rule="evenodd" clip-rule="evenodd"
        d="M45.5715 40.2776C45.5715 40.2776 45.6792 38.9494 45.356 38.4712C45.033 37.993 43.8487 36.0272 43.6871 35.6551C43.5257 35.2831 41.8566 32.5202 41.2647 31.9359C40.6724 31.3514 38.9495 30.0757 38.5188 30.0231C38.3008 29.9965 37.3488 27.2839 34.9337 27.343C34.3146 27.3583 35.2726 28.0769 35.5034 28.577C35.8194 29.262 35.9614 29.7653 35.8476 29.7549C35.2111 29.6973 34.6763 29.6513 34.5351 29.6513C34.4367 29.6513 34.2728 29.659 34.0834 29.6696C33.3779 28.9805 31.9028 27.5537 31.6032 27.3764C31.2063 27.1414 27.9523 23.6947 27.9523 23.6947L26.9998 23.8515C26.9998 23.8515 26.603 24.6347 26.841 25.4181C27.0032 25.9514 27.7256 26.9822 28.1699 27.5849C28.1562 27.6556 28.1562 27.7266 28.1824 27.7913C28.5084 28.597 28.9842 28.8562 29.1384 29.8668C29.0858 29.831 29.0194 29.7835 28.9463 29.727C28.7584 29.5803 28.3094 29.2953 28.111 29.0211C27.7143 28.4731 25.968 27.2198 26.0474 27.2979C26.1267 27.3762 25.8885 28.3163 25.8885 29.1779C25.8885 29.9142 26.7126 31.8923 26.9972 32.5156C26.7446 32.7483 26.4857 32.9874 26.235 33.2243L25.4917 32.6244L25.1912 34.6271C24.7099 35.1368 24.5377 35.513 24.1563 36.0968C23.8794 35.7462 23.0269 35.1817 22.4033 34.3904C19.8182 31.5133 18.848 27.8295 17.7193 24.687C17.141 23.0765 15.3607 21.6088 14.5253 20.9609C13.6897 20.3127 14.1671 21.5499 14.1671 21.5499C14.1671 21.5499 14.9523 22.997 15.5491 23.5859C17.1314 25.4361 17.4397 30.5671 19.1002 33.4721C19.9842 35.0189 22.546 37.4805 23.0481 37.9892C22.95 38.2323 22.857 38.3391 22.7739 38.6154C19.8876 36.0345 18.2532 35.7725 17.5682 35.66C16.4801 35.4812 15.7503 35.7168 16.7292 36.0367C20.0402 37.1192 21.8723 40.6759 22.1281 42.2507C21.989 45.5072 21.5285 45.8267 21.1106 46.8578C20.6799 47.9203 18.3717 50.7892 18.0957 52.9679C17.8198 55.1465 18.2121 57.5441 18.2655 58.7144C18.3189 59.885 18.8577 63.1777 18.6423 64.8778C18.4272 66.5781 18.0557 68.063 17.8943 69.0194C17.7326 69.9759 17.4414 71.5303 17.3276 72.0216C17.055 73.1988 16.1014 73.8039 15.7277 75.2147C15.3574 76.6103 12.5394 82.528 12.4375 83.032C11.2282 86.1458 9.39081 84.2326 7.68429 85.0498C6.38216 85.2184 5.75562 87.5794 5.75562 88.1842C5.75562 88.789 6.15703 89.0914 7.38247 89.0914C8.60821 89.0914 14.2518 89.0924 14.2518 89.0924C14.2518 89.0924 15.3208 88.6633 16.3403 87.1762C16.9531 86.269 17.668 84.3539 17.8723 83.7491C18.0765 83.1441 18.8937 80.6242 19.7107 79.6162C20.5278 78.6082 22.0597 77.4995 22.0597 77.4995C22.0597 77.4995 22.4684 78.3057 22.6726 79.3138C22.8767 80.3218 23.694 82.9426 24.3069 83.3456C24.9194 83.749 25.8389 84.3538 26.7579 84.4546C27.6772 84.5554 29.1073 84.4546 29.2093 83.9506C29.3115 83.4465 29.4136 82.2371 29.4136 82.2371C29.4136 82.2371 28.4943 80.9267 27.9836 79.6161C27.473 78.3057 26.5537 77.0963 26.9622 75.7858C27.3708 74.4755 27.5963 74.0944 27.9832 73.9034C28.3651 73.7151 30.0979 73.8856 31.2522 73.8706C32.5797 73.7697 36.6651 72.7618 37.38 72.0562C38.0951 71.3505 40.3419 71.1491 41.2612 69.0323C42.1803 66.9154 45.1423 62.4801 45.8572 62.2786C46.5723 62.0769 49.6362 61.6736 50.3513 61.9763C51.0662 62.2786 53.2109 63.7907 54.845 65.706C56.4793 67.621 58.4198 70.1409 60.1562 70.9474C61.8925 71.7538 64.6501 74.1732 66.897 75.1811C69.1441 76.1892 71.391 76.9955 72.0037 78.1041C73.0649 80.0242 74.3997 86.2159 70.9235 85.8108C68.9335 85.579 64.7966 85.048 65.1606 89.112L78.132 89.0914C78.132 89.0914 79.6638 86.8737 80.0726 85.9665C80.4809 85.0594 80.583 83.7491 80.583 83.7491L81.6045 84.1522C81.6045 84.1522 82.4215 85.6643 83.9536 86.7729C85.4855 87.8818 87.3238 88.6882 88.6519 88.6882C89.9795 88.6882 92.1244 89.0914 92.6351 88.3859C93.1456 87.6803 93.9628 86.6721 94.167 85.9666C94.3713 85.2609 94.7799 83.9507 94.2692 83.4465C93.7587 82.9427 93.8608 82.7413 92.8392 82.7413C91.8181 82.7413 91.1029 82.7413 90.5926 83.6483C90.0817 84.5554 89.4689 85.6644 89.4689 85.6644C89.4689 85.6644 88.1412 86.9746 86.7113 85.4628C85.2815 83.9507 82.8302 80.5234 82.2173 78.7089C81.6045 76.8948 79.6638 70.4435 79.6638 70.4435C79.6638 70.4435 77.2127 63.3874 75.6806 61.0689C74.1488 58.7506 73.0252 56.9361 72.2081 56.6338C71.3911 56.3314 70.4719 56.1299 69.2462 56.1299C68.0206 56.1299 67.3056 56.2306 66.3864 55.3235C65.4672 54.4161 64.0374 52.501 63.1181 51.997C62.4241 51.6163 61.0894 51.523 60.4771 51.4998C60.4439 51.2981 60.4094 51.0724 60.374 50.8287C60.2337 49.8596 60.7948 50.1364 61.4963 49.8596C62.1975 49.5825 63.4601 48.752 65.0032 47.229C66.5464 45.7061 66.9673 44.8753 67.6685 43.6294C68.3701 42.3833 67.9494 42.3833 67.5282 41.6909C67.1074 40.9988 66.9673 41.8294 66.2657 42.7986C65.5641 43.7678 64.1616 44.0446 63.3199 44.7369C62.4783 45.4293 61.917 45.1522 60.9349 45.2909C59.9531 45.4294 59.6724 44.5986 60.5141 44.5986C61.3558 44.5986 63.0392 43.3526 65.003 42.3834C66.9672 41.4141 68.37 38.7839 68.37 37.9531C68.37 37.1224 68.5102 36.7071 68.5102 35.7377C68.5102 34.7689 67.8088 35.8762 67.1074 36.7071C66.4059 37.5378 65.1432 37.9531 64.5823 38.6454C64.0211 39.3376 62.4782 40.3066 61.3558 40.8605C60.2335 41.4141 58.55 40.8605 58.55 40.8605C58.55 40.8605 60.3738 39.6146 61.2156 39.3376C62.0571 39.0607 65.7047 35.8762 66.6864 34.492C67.6684 33.1075 67.2476 33.5228 67.8087 32.5536C68.37 31.5844 67.5281 30.0614 67.5281 30.0614C67.5281 30.0614 66.8267 30.4768 66.2656 31.169C65.7046 31.8615 64.8627 32.969 63.4599 33.7997C62.057 34.6303 61.0754 34.9073 61.0754 34.9073C61.0754 34.9073 59.953 35.3224 59.953 34.3533C59.953 33.3842 62.6183 32.2767 64.1615 31.4459C65.7047 30.6152 65.9851 29.369 66.1254 27.8463C66.2656 26.3235 66.2656 25.908 66.1254 24.9388C65.9851 23.9697 65.8448 24.9388 65.1432 25.7695C64.442 26.6003 63.3198 27.431 62.1974 28.4001C61.0754 29.369 58.55 30.6152 57.0072 31.8615C55.4641 33.1075 54.0611 35.4609 53.4999 36.9839C52.9388 38.5071 52.7985 39.3376 52.518 40.5836C52.2374 41.8295 51.8166 43.6294 51.3956 44.737C51.0455 45.6589 49.9176 46.6754 49.5489 46.9912C49.4733 46.969 49.4317 46.9573 49.4317 46.9573C49.4317 46.9573 49.0792 46.9463 48.5539 46.939C48.6838 46.5957 48.824 46.1667 48.8707 45.5679C49.0109 43.768 50.6941 41.6911 51.2552 40.5837C51.8166 39.476 51.5358 38.7839 51.5358 38.7839C51.5358 38.7839 50.4137 39.7531 49.7122 40.722C49.0109 41.6911 48.1692 43.2142 47.4677 44.0448C46.7663 44.8755 45.9247 45.568 45.3634 46.9524C45.3594 46.9624 45.3557 46.972 45.3519 46.9821C45.2831 46.9859 45.2155 46.9909 45.1501 46.9953C45.284 46.915 45.3158 46.853 45.2232 46.8139C44.3271 46.4346 44.2492 44.3254 44.2425 43.96C44.6952 43.2881 45.0398 42.5218 45.0398 42.5218L45.5712 40.2775L45.5715 40.2776ZM23.3606 71.3286C23.3606 71.3286 23.716 68.8736 24.6398 68.1022C25.5636 67.3309 26.3452 66.4892 27.4824 66.1386C28.6194 65.7876 29.4722 65.3668 30.6804 65.9982C31.8884 66.6295 31.8884 67.401 31.8884 67.401C31.8884 67.401 31.2487 68.5932 30.1118 69.2946C28.9747 69.9959 26.985 69.996 26.3452 70.487C25.7059 70.9777 24.9951 71.7494 24.2133 71.8194C23.4318 71.8895 23.3605 71.3286 23.3605 71.3286H23.3606ZM68.8611 60.4164C69.2119 59.9839 70.0886 59.8971 71.2282 60.33C72.368 60.7627 72.6311 61.7143 73.5078 63.099C74.3847 64.4833 75.7872 67.4254 76.3136 68.6367C76.8395 69.8484 78.1547 73.3096 78.2423 73.9153C78.33 74.5208 77.8041 73.9153 77.1025 73.4826C76.4011 73.0499 74.6474 72.5307 74.6474 72.5307C74.6474 72.5307 74.2093 71.5788 74.0339 71.1464C73.8585 70.7136 72.631 69.6752 71.7542 68.5501C70.8774 67.4254 70.7024 66.6467 69.6501 64.5698C68.598 62.4931 68.5103 60.8491 68.861 60.4163L68.8611 60.4164ZM67.2478 23.5546C71.9486 18.4935 73.8456 14.757 74.2618 7.77142C74.402 5.41773 74.8232 3.61794 74.8232 3.61794L75.3843 2.78731C75.3843 2.78731 76.3659 3.75639 76.3659 4.72546C76.3659 9.30045 75.3843 13.91 73.7008 18.1549C72.4991 21.1852 67.1989 28.3963 67.1989 28.3963C67.7432 26.3439 68.0372 24.3732 67.2478 23.5546ZM68.6507 28.8157C73.3496 24.0167 75.4839 17.035 77.0675 10.6788C77.7795 7.82167 79.2244 2.7566 82.258 1.40285L83.0995 1.81825C83.0995 1.81825 81.5567 3.20278 81.1357 4.31021C80.7149 5.4178 79.4523 8.60228 78.891 11.3711C77.9891 15.8227 76.2852 21.9891 74.1217 26.0466C72.7187 28.6771 68.9311 33.2461 68.9311 33.2461C69.3934 31.6597 69.2997 30.1829 68.6507 28.8157L68.6507 28.8157ZM69.3521 34.3535C69.0716 34.4922 72.3215 31.3805 72.9993 30.3385C76.3155 25.2411 76.0684 23.7036 77.4883 19.6781C78.5832 16.5734 80.9953 14.9708 80.9953 14.9708L82.2579 14.694L82.3982 15.5725C79.6447 18.3057 78.6214 21.3096 77.7635 24.2948C76.9658 27.0692 74.879 33.9605 71.4078 37.1333L69.2991 39.0608C69.8443 37.767 70.5759 35.8067 69.3521 34.3535ZM68.7908 41.1374C67.8852 41.5231 71.5276 38.8698 72.2978 37.9532C76.546 32.8981 75.7824 30.9482 78.1897 27.8412C80.0131 25.4879 80.855 24.8005 80.855 24.8005C81.5058 24.7484 81.8355 25.3493 81.5565 25.6313C76.7366 30.5014 77.6564 32.2846 76.0853 36.2919C75.105 38.7928 71.0816 43.1306 68.6506 44.8756C69.1367 44.6834 69.6966 40.7519 68.7907 41.1373L68.7908 41.1374ZM67.1564 47.2293C70.3172 46.6324 72.899 43.1888 75.9453 41.1374C77.1041 40.3573 78.7508 39.7533 78.7508 39.7533C78.7508 39.7533 76.7869 41.8297 75.3843 43.4912C72.1218 47.3549 68.9159 50.552 63.4601 50.552C64.2786 50.2121 67.1091 48.099 67.1565 47.2293H67.1564ZM23.7431 34.6139C23.7431 34.6139 20.7576 30.1102 19.8974 27.8245C17.9409 22.6263 17.7582 19.0899 15.4125 16.003C14.7621 15.147 13.1884 12.2816 13.1884 12.2816V11.6392C13.1884 11.6392 15.0555 13.5045 15.6462 14.2079C20.2325 19.6685 21.2743 29.1347 24.9043 31.0884C24.7227 31.2941 23.8879 32.1167 23.8879 32.1167L23.7432 34.614L23.7431 34.6139ZM24.6187 29.7266C24.6187 29.7266 21.5575 24.1851 20.7295 22.3633C16.6602 13.4096 17.7049 8.65371 14.3971 2.47547C13.6666 1.11109 13.5069 0.351807 13.5069 0.351807C13.5069 0.351807 15.9132 2.6049 16.8347 4.58725C18.9165 9.06755 20.5589 20.3257 25.2492 25.9791L24.5394 26.6715L24.6186 29.7266H24.6187ZM25.4945 24.719C21.1678 17.8433 19.2768 10.0645 19.3008 2.5448C19.3008 2.5448 19.6185 2.46678 19.6976 3.09329C20.115 6.38673 21.4689 13.0216 26.5178 21.8177L25.6504 22.0498L25.4944 24.7189L25.4945 24.719ZM6.35106 87.7033C7.18766 85.8419 7.80697 85.4698 9.6995 85.5241C11.94 86.4754 13.5657 82.0943 14.3612 80.2148C15.3917 77.7641 16.0956 75.1791 17.5329 72.934L18.7359 67.7031C20.0387 62.0387 18.786 58.9786 18.8171 54.6949C18.8786 51.4887 21.5698 49.2615 22.4959 46.3029C22.7092 45.5549 22.8237 44.813 22.911 44.0431C23.3696 39.1295 24.5162 34.351 29.4612 31.6919C29.5972 31.469 29.6754 31.2887 29.7057 31.0302C29.8578 29.7317 29.6894 28.7845 29.0073 27.9491L28.8288 27.7171L30.1944 27.7242L32.7528 30.464L33.0116 30.4451L33.1696 30.4333L33.3987 30.4163L33.6712 30.3969L33.9609 30.3774C36.7292 30.2087 39.0474 30.3098 40.8927 32.5886L43.846 37.3465L44.1157 37.7943L44.3703 38.2113L44.5904 38.5622L44.7345 38.7843L44.8066 38.9369L44.8586 39.1422L44.8937 39.4018L44.9105 39.6772L44.4453 40.2264C43.8226 41.639 44.5675 41.9738 44.0699 42.8954L43.9199 43.1545L43.7558 43.4186L43.5845 43.6679L43.4164 43.8753C42.6441 44.6068 41.7192 44.89 40.8219 44.359L40.5356 44.1562C38.4718 42.5437 36.4752 41.1644 33.9463 42.7809L33.5672 43.084L33.227 43.4247L32.93 43.8048L32.7975 44.0576L32.7183 44.3347L32.6902 44.6188L32.7034 44.9048L32.7522 45.1916L32.8296 45.4787L32.933 45.7661L33.0573 46.0522L33.2012 46.3376L33.3606 46.6195L33.5334 46.8975L33.7171 47.1684L33.9088 47.4314L34.1063 47.6841L34.3071 47.9249L34.5127 48.1553L34.7283 48.3685L34.9547 48.5466L35.1915 48.6848L35.4378 48.7811L35.6902 48.8361L35.9424 48.8529L36.1929 48.8378L36.4403 48.7992L36.6906 48.7438L36.9483 48.6749L37.2186 48.5974L37.5037 48.5139L37.8101 48.4281L38.1406 48.3422L38.4981 48.2592L38.8897 48.1814L39.3003 48.1111L39.7085 48.0465L40.1113 47.9876L40.5076 47.9335L40.8977 47.8845L41.2803 47.8391L41.6555 47.7975L42.0217 47.7579L42.3793 47.7218L42.7276 47.6868L43.0666 47.6534L43.3938 47.6194L43.711 47.5866L44.016 47.552L44.3099 47.5167L44.5841 47.48L44.8643 47.4472L45.1822 47.4202L45.1871 47.4198C44.7211 48.746 44.4277 50.3801 44.8029 51.2445C45.2237 52.2137 46.2054 52.4906 46.2054 52.4906L54.7629 52.2138C54.7629 52.2138 54.6225 52.2138 54.2016 51.5214C53.7807 50.8292 52.5183 49.8601 51.2556 49.8601C49.9932 49.8601 49.7126 49.5831 48.7308 48.614C48.2243 48.114 48.2399 47.7988 48.3932 47.3633L48.5777 47.3659L48.8598 47.3702L49.0935 47.375L49.2704 47.3791L49.3644 47.3809L49.4906 47.418L49.6996 47.4801L49.9726 47.561L50.2985 47.6598L50.6664 47.7726L51.0649 47.8971L51.4821 48.0295L51.9076 48.1684L52.3288 48.3094L52.7357 48.4508L53.1143 48.5884L53.4545 48.7196L53.7409 48.8403L53.9571 48.9432L54.0823 49.0172L54.3576 49.2494L54.7334 49.6245L55.1707 50.0928L55.6352 50.6049L56.0995 51.1175L56.5365 51.5868L56.9265 51.976L57.2737 52.2633L57.6738 52.4302L58.1473 52.5202L58.6523 52.5627L59.1594 52.5735L59.6312 52.5655L60.0243 52.548L60.2956 52.5302L60.9418 52.4757L60.7614 51.9407L60.8222 51.9442L61.2478 51.9793L61.7115 52.0372L62.1713 52.1208L62.5844 52.2332L62.9085 52.3714L63.2183 52.5825L63.5901 52.91L64.0008 53.3238L64.4306 53.7918L64.8663 54.2845L65.2934 54.7722L65.7022 55.2284L66.0866 55.6291L66.4599 55.9569L66.8394 56.2054L67.225 56.3788L67.6146 56.4845L68.0056 56.5378L68.4008 56.5569L68.8103 56.5582L69.2432 56.5551L69.6733 56.5644L70.073 56.5901L70.449 56.6317L70.8021 56.6871L71.1377 56.7564L71.4563 56.8371L71.762 56.9301L72.0428 57.0272L72.1508 57.079L72.2717 57.1582L72.4133 57.2745L72.5716 57.4256L72.7437 57.6113L72.9282 57.8273L73.1231 58.073L73.3282 58.3457L73.5437 58.6445L73.7686 58.9666L74.003 59.3106L74.2469 59.6747L74.5007 60.0579L74.8154 60.433C74.9602 60.6283 74.8047 60.9998 74.5138 61.5735C74.2233 62.1475 73.1572 60.7127 72.2851 60.0434C71.413 59.3739 70.0563 58.8001 69.1841 58.7043C68.312 58.6085 68.1181 58.9911 67.7305 60.139C67.3429 61.2866 68.215 62.9125 68.312 63.7731C68.4089 64.6338 70.347 67.503 71.0253 68.3638C71.7037 69.2248 72.1883 71.4242 72.1883 71.4242C72.1883 71.4242 70.444 70.7548 69.5718 69.8941C68.6996 69.0334 68.1182 68.842 66.9554 67.4075C65.7925 65.9729 64.145 65.6861 63.3698 65.2078C62.5947 64.7296 60.9473 63.8687 59.7845 63.2949C58.6215 62.7212 57.2648 60.7126 56.2958 60.0433C55.3268 59.3738 53.6795 59.1825 52.9042 59.5651C52.129 59.9475 50.8691 60.2344 49.6092 60.4258C48.3495 60.6173 48.5434 59.9476 47.4773 59.4693C46.4115 58.9911 45.1516 58.9911 44.0857 58.9911C43.0198 58.9911 43.1167 59.4693 42.5353 60.3302C41.9538 61.1909 42.2447 61.1909 40.8876 61.5735C39.5312 61.9562 39.3373 61.9562 38.4651 62.2431C37.5932 62.5299 36.9147 64.1557 36.8178 64.8253C36.7211 65.4948 35.655 66.1644 35.1705 66.738C34.6859 67.312 34.0076 67.3119 33.1356 66.9294C32.2634 66.5467 32.9415 65.5904 33.4262 64.8253C33.9107 64.0603 34.0076 62.5299 34.0076 61.7649C34.0076 60.9998 33.0385 60.2345 32.554 58.8002C32.0695 57.3654 33.0385 55.6441 32.554 55.9309C32.0695 56.2179 24.9953 62.0517 24.9953 62.0517L22.2821 59.8522C22.2821 59.8522 22.1853 61.6691 22.1853 62.8167C22.1853 63.9646 21.0221 67.7901 20.5377 68.7466C20.0534 69.7027 19.4482 71.4864 18.9636 72.5386C18.4791 73.5905 17.8845 74.0511 17.8845 74.0511C17.8845 74.0511 15.305 79.1711 14.9172 80.6055C14.5296 82.0402 12.4742 85.9102 11.7959 86.2929C11.1175 86.6753 9.93793 86.9113 9.01504 86.6726C7.74348 86.3435 6.36276 87.7114 6.35121 87.7036L6.35106 87.7033ZM39.3815 34.9749H39.7783L41.2864 35.915L41.6039 36.8547L40.969 37.0115C40.969 37.0115 40.969 39.1264 40.8895 38.7348C40.8101 38.3431 39.3814 34.9749 39.3814 34.9749H39.3815ZM78.7082 75.4531C79.0059 75.5998 79.8896 76.2635 80.4568 77.0303C81.2383 78.0869 81.3678 81.8639 80.5151 83.242C80.5151 83.242 80.4947 80.0818 80.1971 78.6126C79.8994 77.143 78.4101 75.3062 78.7082 75.453V75.4531Z"
        fill="white" />
</svg>